<svg width="64" height="64" viewBox="0 0 64 64" fill="none" xmlns="http://www.w3.org/2000/svg">
<circle cx="23" cy="41" r="23" fill="#9EE970"/>
<path fill-rule="evenodd" clip-rule="evenodd" d="M33.3163 5.49421C32.5627 4.83547 31.4382 4.83524 30.6843 5.49367C26.5641 9.09237 20.887 12.6903 12 12.6903C11.4696 12.6903 10.9609 12.901 10.5858 13.276C10.2107 13.6511 10 14.1598 10 14.6903L10 34.4955C10 41.3288 12.6324 46.4984 16.6784 50.4262C20.6626 54.294 25.9667 56.9135 31.3107 58.8754C31.7557 59.0388 32.2443 59.0388 32.6893 58.8754C38.0333 56.9135 43.3373 54.294 47.3216 50.4262C51.3676 46.4985 54 41.3288 54 34.4955V14.6903C54 14.1598 53.7893 13.6511 53.4142 13.276C53.0391 12.901 52.5304 12.6903 52 12.6903C47.023 12.6903 43.4051 11.7752 40.5471 10.4619C37.6714 9.14054 35.4652 7.37266 33.3163 5.49421ZM14 34.4955L14 16.6349C22.1363 16.1792 27.8181 12.9784 31.9877 9.6213C33.9086 11.2203 36.1116 12.8259 38.877 14.0966C41.878 15.4756 45.4652 16.4274 50 16.6435V34.4955C50 40.1601 47.8705 44.3186 44.5355 47.5561C41.2915 50.7053 36.8624 53.0202 32 54.8634C27.1376 53.0202 22.7085 50.7053 19.4645 47.5561C16.1296 44.3186 14 40.1601 14 34.4955ZM44.3436 26.4794C45.1618 25.7373 45.2235 24.4725 44.4814 23.6543C43.7394 22.8361 42.4745 22.7744 41.6564 23.5165L28.6712 35.2938L22.3485 29.521C21.5328 28.7762 20.2678 28.8337 19.523 29.6494C18.7783 30.4651 18.8358 31.7301 19.6515 32.4749L27.3181 39.4749C28.08 40.1706 29.2461 40.1725 30.0103 39.4794L44.3436 26.4794Z" fill="black"/>
</svg>
