<svg width="136" height="40" viewBox="0 0 136 40" fill="none" xmlns="http://www.w3.org/2000/svg">
<path d="M124.234 27.2142C123.668 27.2337 123.219 27.0873 122.887 26.775C122.556 26.4627 122.39 26.0332 122.39 25.4866V14.3306C122.39 13.8035 122.556 13.3839 122.887 13.0715C123.219 12.7592 123.658 12.603 124.205 12.603C124.771 12.603 125.22 12.7592 125.552 13.0715C125.884 13.3839 126.05 13.8035 126.05 14.3306V17.6393H129.47C133.199 17.6393 135.063 19.1815 135.063 22.2657C135.063 23.3394 134.789 24.2471 134.243 24.9889C133.716 25.7306 133.013 26.287 132.135 26.6579C131.256 27.0288 130.319 27.2142 129.324 27.2142H124.234ZM128.504 24.6961C129.304 24.6961 129.987 24.5106 130.553 24.1397C131.12 23.7493 131.403 23.1442 131.403 22.3243C131.403 21.5044 131.139 20.9383 130.612 20.626C130.085 20.3137 129.382 20.1575 128.504 20.1575H126.021V24.6961H128.504Z" fill="white"/>
<path d="M110.815 17.111C110.815 20.0977 110.444 22.3816 109.702 23.9627C108.96 25.5244 107.896 26.6371 106.511 27.3008C106.296 27.3984 106.042 27.4472 105.749 27.4472C105.32 27.4472 104.968 27.3203 104.695 27.0665C104.422 26.7932 104.285 26.4516 104.285 26.0417C104.285 25.7489 104.363 25.4756 104.519 25.2218C104.676 24.9485 104.91 24.724 105.222 24.5484C106.062 24.0799 106.637 23.299 106.95 22.2059C107.282 21.1127 107.448 19.4437 107.448 17.1988V14.7392C107.428 14.1731 107.574 13.7242 107.887 13.3923C108.199 13.0605 108.629 12.8945 109.175 12.8945H116.905C117.471 12.875 117.92 13.0214 118.252 13.3338C118.584 13.6461 118.75 14.0755 118.75 14.6221V25.661C118.75 26.1881 118.584 26.6078 118.252 26.9201C117.92 27.2324 117.471 27.3886 116.905 27.3886C116.359 27.3886 115.92 27.2324 115.588 26.9201C115.256 26.6078 115.09 26.1881 115.09 25.661V15.647H110.815V17.111Z" fill="white"/>
<path d="M97.7956 14.0085C98.186 13.4619 98.5374 13.091 98.8497 12.8958C99.1816 12.7006 99.6306 12.603 100.197 12.603C100.763 12.603 101.212 12.7592 101.544 13.0715C101.895 13.3839 102.071 13.8035 102.071 14.3306V25.6038C102.071 26.1308 101.905 26.5603 101.573 26.8921C101.261 27.224 100.851 27.3899 100.343 27.3899C99.816 27.3899 99.3865 27.224 99.0547 26.8921C98.7424 26.5603 98.5862 26.1308 98.5862 25.6038V17.3465L92.3786 26.043C92.0077 26.57 91.6466 26.9312 91.2952 27.1264C90.9634 27.3021 90.5437 27.3899 90.0361 27.3899C89.47 27.3899 89.021 27.2337 88.6892 26.9214C88.3573 26.6091 88.1914 26.1796 88.1914 25.633V14.3599C88.1914 13.8328 88.3476 13.4131 88.6599 13.1008C88.9918 12.769 89.4212 12.603 89.9483 12.603C90.4558 12.603 90.8657 12.769 91.1781 13.1008C91.5099 13.4131 91.6759 13.8328 91.6759 14.3599V22.5585L97.7956 14.0085Z" fill="white"/>
<path d="M79.4202 27.3925C78.8541 27.3925 78.4052 27.2363 78.0733 26.924C77.7415 26.6117 77.5755 26.192 77.5755 25.6649V15.6508H74.2082C73.7788 15.6508 73.4274 15.524 73.1541 15.2702C72.9003 15.0164 72.7734 14.6846 72.7734 14.2746C72.7734 13.8647 72.9003 13.5329 73.1541 13.2791C73.4274 13.0253 73.7788 12.8984 74.2082 12.8984H84.603C85.0325 12.8984 85.3741 13.0253 85.6278 13.2791C85.9011 13.5329 86.0378 13.8647 86.0378 14.2746C86.0378 14.6846 85.9011 15.0164 85.6278 15.2702C85.3741 15.524 85.0325 15.6508 84.603 15.6508H81.2357V25.6649C81.2357 26.192 81.0697 26.6117 80.7379 26.924C80.406 27.2363 79.9668 27.3925 79.4202 27.3925Z" fill="white"/>
<path d="M52.7197 27.2142C52.1536 27.2337 51.7046 27.0873 51.3728 26.775C51.0409 26.4627 50.875 26.0332 50.875 25.4866V14.3306C50.875 13.8035 51.0312 13.3839 51.3435 13.0715C51.6754 12.7592 52.1146 12.603 52.6611 12.603C53.2272 12.603 53.6762 12.7592 54.0081 13.0715C54.3399 13.3839 54.5059 13.8035 54.5059 14.3306V24.4618H58.9566V14.3306C58.9566 13.8035 59.103 13.3839 59.3958 13.0715C59.7081 12.7592 60.1376 12.603 60.6842 12.603C61.2503 12.603 61.6992 12.7592 62.0311 13.0715C62.363 13.3839 62.5289 13.8035 62.5289 14.3306V24.4618H66.9796V14.3306C66.9796 13.8035 67.1358 13.3839 67.4481 13.0715C67.78 12.7592 68.2192 12.603 68.7658 12.603C69.3319 12.603 69.7808 12.7592 70.1127 13.0715C70.4445 13.3839 70.6105 13.8035 70.6105 14.3306V25.3695C70.6105 25.9356 70.4543 26.3846 70.142 26.7164C69.8296 27.0483 69.4099 27.2142 68.8829 27.2142H52.7197Z" fill="white"/>
<path fill-rule="evenodd" clip-rule="evenodd" d="M33.71 13.9408L30.9249 8.48237C30.1471 6.95941 28.5822 6 26.8707 6H11.0799C9.37061 6 7.80574 6.95709 7.02796 8.48004L4.25683 13.9059C3.67233 15.0516 2.84565 16.0576 1.835 16.854L1.73254 16.9355C0.638059 17.7994 0 19.1151 0 20.5077V31.7132C0 32.9754 1.01996 34 2.27745 34H5.09981C6.3573 34 7.37726 32.9754 7.37726 31.7132V28.9491H30.5616V31.7132C30.5616 32.9754 31.5816 34 32.8391 34H35.6614C36.9189 34 37.9389 32.9754 37.9389 31.7132V20.5193C37.9389 19.1151 37.2915 17.7901 36.1831 16.9285C35.1514 16.1251 34.3085 15.1051 33.7123 13.9408H33.71ZM10.1187 24.1219C10.1187 24.8415 9.53419 25.4259 8.81463 25.4259H5.08874C4.0874 25.4259 3.26771 24.6016 3.26771 23.5956V21.9353C3.26771 20.9572 4.30164 20.3285 5.17024 20.7756L9.41077 22.9622C9.8439 23.1858 10.1187 23.6329 10.1187 24.1219ZM29.1224 25.4259C28.4028 25.4259 27.8183 24.8415 27.8183 24.1219C27.8183 23.6329 28.0931 23.1858 28.5262 22.9622L32.7668 20.7756C33.6354 20.3285 34.6693 20.9572 34.6693 21.9353V23.5956C34.6693 24.6016 33.8496 25.4259 32.8483 25.4259H29.1224ZM28.6411 11.1418C28.0496 9.97975 26.8737 9.26484 25.5812 9.26484H12.3776C11.0852 9.26484 9.90921 9.98673 9.31772 11.1418L7.23588 15.2239C6.83069 16.018 7.14506 16.9891 7.93681 17.3989C8.73322 17.8088 9.7136 17.4944 10.1188 16.6956L12.2495 12.5157H17.3563V16.528C17.3563 17.4199 18.0806 18.1441 18.9724 18.1441C19.8643 18.1441 20.5885 17.4199 20.5885 16.528V12.5157H25.6953L27.8261 16.6956C28.2336 17.4944 29.2116 17.8088 30.0081 17.3989C30.7998 16.9914 31.1142 16.018 30.709 15.2239L28.6271 11.1418H28.6365H28.6411ZM13.8769 22.1766H24.0742C24.9719 22.1766 25.6996 22.9043 25.6996 23.802C25.6996 24.6997 24.9719 25.4274 24.0742 25.4274H13.8769C12.9792 25.4274 12.2515 24.6997 12.2515 23.802C12.2515 22.9043 12.9792 22.1766 13.8769 22.1766Z" fill="white"/>
</svg>
