<svg width="32" height="32" viewBox="0 0 32 32" fill="none" xmlns="http://www.w3.org/2000/svg">
<g clip-path="url(#clip0_221_564)">
<rect width="32" height="32" rx="16" fill="white"/>
<path d="M32 0H0V32H32V0Z" fill="#19AA1E"/>
<path fill-rule="evenodd" clip-rule="evenodd" d="M0 0H32V10.5L0 5.5V0Z" fill="#FFB919"/>
<path fill-rule="evenodd" clip-rule="evenodd" d="M0 28.5L32 23.5V32H0V28.5Z" fill="#82D714"/>
<path fill-rule="evenodd" clip-rule="evenodd" d="M0 4.86719L11.1698 6.61244C12.5603 5.73229 14.2145 5.24974 16 5.24974C18.473 5.24974 20.6942 6.17549 22.3115 7.80109C22.5156 8.00624 22.708 8.22074 22.8885 8.44349L32 9.86714V11.1323L23.8138 9.85324C24.4219 11.0203 24.75 12.3207 24.75 13.6477C24.75 15.3622 24.3665 17.0715 23.5738 18.7877L23.5497 18.8397L23.2131 19.5611H22.417C20.7731 19.5611 19.6826 20.0528 18.9697 20.9243C18.41 21.6085 18.0862 22.5309 17.9773 23.5374L17.974 23.5688L17.9581 23.7296L17.9514 23.7996L17.9384 23.9364C17.8967 24.3858 17.8688 24.7668 17.8547 25.0774L32 22.8671V24.1323L0 29.1323V27.8671L14.1612 25.6544L14.155 25.3704L14.1532 25.2903L14.152 25.2493L14.1498 25.1858C14.137 24.8414 14.1054 24.4 14.0549 23.8649L14.0452 23.7634L14.0279 23.5877C13.9263 22.576 13.6074 21.6419 13.0491 20.9475C12.3437 20.0701 11.2633 19.5711 9.6326 19.5612L9.58305 19.5611H8.78695L8.4503 18.8397C7.64125 17.106 7.25 15.3795 7.25 13.6477C7.25 11.47 8.1335 9.36414 9.68855 7.80109C9.73345 7.75599 9.7788 7.71144 9.8246 7.66739L0 6.13229V4.86719Z" fill="white"/>
<path fill-rule="evenodd" clip-rule="evenodd" d="M16 6.5C20.4675 6.5 23.5 9.93865 23.5 13.648C23.5 15.1372 23.1751 16.6868 22.417 18.3114C18.021 18.3114 16.9359 21.4595 16.7307 23.4403L16.7175 23.5723C16.648 24.2793 16.6078 24.8465 16.5969 25.2742L15.4062 25.4602L15.4058 25.4217C15.4013 24.9734 15.359 24.3447 15.2788 23.5353L15.2752 23.5C15.0857 21.5234 14.0234 18.3114 9.58305 18.3114C8.8249 16.6868 8.5 15.1372 8.5 13.648C8.5 9.93865 11.5325 6.5 16 6.5Z" fill="#0073FA"/>
</g>
<defs>
<clipPath id="clip0_221_564">
<rect width="32" height="32" rx="16" fill="white"/>
</clipPath>
</defs>
</svg>
