<svg width="40" height="40" viewBox="0 0 40 40" fill="none" xmlns="http://www.w3.org/2000/svg">
<rect width="40" height="40" rx="20" fill="#9EE970"/>
<path d="M11.2929 27.2929C10.9024 27.6834 10.9024 28.3166 11.2929 28.7071C11.6834 29.0976 12.3166 29.0976 12.7071 28.7071L11.2929 27.2929ZM29 12C29 11.4477 28.5523 11 28 11H19C18.4477 11 18 11.4477 18 12C18 12.5523 18.4477 13 19 13H27V21C27 21.5523 27.4477 22 28 22C28.5523 22 29 21.5523 29 21V12ZM12.7071 28.7071L28.7071 12.7071L27.2929 11.2929L11.2929 27.2929L12.7071 28.7071Z" fill="black"/>
</svg>
