<svg width="64" height="64" viewBox="0 0 64 64" fill="none" xmlns="http://www.w3.org/2000/svg">
<circle cx="23" cy="41" r="23" fill="#9EE970"/>
<path fill-rule="evenodd" clip-rule="evenodd" d="M32 9C19.2975 9 9 19.2975 9 32C9 44.7025 19.2975 55 32 55C44.7025 55 55 44.7025 55 32C55 19.2975 44.7025 9 32 9ZM5 32C5 17.0883 17.0883 5 32 5C46.9117 5 59 17.0883 59 32C59 46.9117 46.9117 59 32 59C17.0883 59 5 46.9117 5 32ZM45.2652 18.6277C46.0749 19.3791 46.1221 20.6445 45.3708 21.4542L32.4928 35.3316C32.378 35.4606 32.2487 35.5721 32.1088 35.665C31.6067 36 30.9833 36.0852 30.4184 35.9141C30.2577 35.8653 30.1017 35.7959 29.9546 35.7055L15.4886 27.2254C14.5357 26.6668 14.216 25.4415 14.7746 24.4886C15.3332 23.5357 16.5585 23.216 17.5114 23.7746L30.6262 31.4626L42.4387 18.7333C43.1901 17.9237 44.4555 17.8764 45.2652 18.6277Z" fill="black"/>
</svg>
