<svg width="64" height="64" viewBox="0 0 64 64" fill="none" xmlns="http://www.w3.org/2000/svg">
<circle cx="23" cy="41" r="23" fill="#9EE970"/>
<path fill-rule="evenodd" clip-rule="evenodd" d="M19.2721 14.2721C22.6477 10.8964 27.2261 9 32 9C36.7739 9 41.3523 10.8964 44.7279 14.2721C48.1036 17.6477 50 22.2261 50 27C50 33.7099 45.4591 40.7232 40.5052 46.2963C38.0752 49.03 35.6389 51.3147 33.808 52.9167C33.101 53.5354 32.4864 54.0503 32 54.4482C31.5136 54.0503 30.899 53.5354 30.192 52.9167C28.3611 51.3147 25.9248 49.03 23.4948 46.2963C18.5409 40.7232 14 33.7099 14 27C14 22.2261 15.8964 17.6477 19.2721 14.2721ZM30.799 58.5993C30.7995 58.5997 30.8 58.6 32 57L30.8 58.6C31.5111 59.1333 32.4889 59.1333 33.2 58.6L32 57C33.2 58.6 33.2005 58.5997 33.201 58.5993L33.2024 58.5982L33.2067 58.595L33.2206 58.5845L33.2697 58.5472C33.2928 58.5296 33.3216 58.5075 33.3559 58.4812C33.3836 58.4599 33.415 58.4357 33.4498 58.4087C33.605 58.2884 33.8291 58.1127 34.1122 57.8852C34.6781 57.4304 35.4811 56.7679 36.442 55.927C38.3611 54.2478 40.9248 51.845 43.4948 48.9537C48.5409 43.2768 54 35.2901 54 27C54 21.1652 51.6822 15.5695 47.5564 11.4437C43.4305 7.31785 37.8348 5 32 5C26.1652 5 20.5695 7.31785 16.4437 11.4437C12.3179 15.5695 10 21.1652 10 27C10 35.2901 15.4591 43.2768 20.5052 48.9537C23.0752 51.845 25.6389 54.2478 27.558 55.927C28.5189 56.7679 29.3219 57.4304 29.8878 57.8852C30.1709 58.1127 30.395 58.2884 30.5502 58.4087C30.5991 58.4466 30.6411 58.4789 30.676 58.5057C30.6966 58.5215 30.7148 58.5353 30.7303 58.5472L30.7794 58.5845L30.7933 58.595L30.7976 58.5982L30.799 58.5993ZM26 27C26 23.6863 28.6863 21 32 21C35.3137 21 38 23.6863 38 27C38 30.3137 35.3137 33 32 33C28.6863 33 26 30.3137 26 27ZM32 17C26.4772 17 22 21.4772 22 27C22 32.5228 26.4772 37 32 37C37.5228 37 42 32.5228 42 27C42 21.4772 37.5228 17 32 17Z" fill="black"/>
</svg>
