<svg width="136" height="28" viewBox="0 0 136 28" fill="none" xmlns="http://www.w3.org/2000/svg">
<path d="M124.235 21.2147C123.669 21.2342 123.22 21.0878 122.888 20.7755C122.556 20.4632 122.39 20.0337 122.39 19.4871V8.33109C122.39 7.80403 122.556 7.38434 122.888 7.07201C123.22 6.75968 123.659 6.60352 124.206 6.60352C124.772 6.60352 125.221 6.75968 125.552 7.07201C125.884 7.38434 126.05 7.80403 126.05 8.33109V11.6398H129.471C133.199 11.6398 135.063 13.182 135.063 16.2662C135.063 17.3399 134.79 18.2476 134.243 18.9893C133.716 19.7311 133.014 20.2875 132.135 20.6584C131.257 21.0293 130.32 21.2147 129.324 21.2147H124.235ZM128.504 18.6965C129.305 18.6965 129.988 18.5111 130.554 18.1402C131.12 17.7498 131.403 17.1447 131.403 16.3248C131.403 15.5049 131.14 14.9388 130.613 14.6265C130.085 14.3142 129.383 14.158 128.504 14.158H126.021V18.6965H128.504Z" fill="black"/>
<path d="M110.815 11.1117C110.815 14.0984 110.444 16.3823 109.703 17.9635C108.961 19.5251 107.897 20.6378 106.511 21.3015C106.296 21.3991 106.043 21.4479 105.75 21.4479C105.32 21.4479 104.969 21.321 104.696 21.0673C104.422 20.794 104.286 20.4523 104.286 20.0424C104.286 19.7496 104.364 19.4763 104.52 19.2226C104.676 18.9493 104.91 18.7248 105.223 18.5491C106.062 18.0806 106.638 17.2998 106.95 16.2066C107.282 15.1135 107.448 13.4444 107.448 11.1996V8.73998C107.428 8.17388 107.575 7.7249 107.887 7.39305C108.2 7.0612 108.629 6.89528 109.176 6.89528H116.906C117.472 6.87576 117.921 7.02216 118.253 7.33449C118.585 7.64682 118.751 8.07627 118.751 8.62285V19.6618C118.751 20.1888 118.585 20.6085 118.253 20.9208C117.921 21.2332 117.472 21.3893 116.906 21.3893C116.359 21.3893 115.92 21.2332 115.588 20.9208C115.256 20.6085 115.09 20.1888 115.09 19.6618V9.64769H110.815V11.1117Z" fill="black"/>
<path d="M97.7951 8.009C98.1855 7.46242 98.5369 7.09153 98.8492 6.89632C99.1811 6.70112 99.6301 6.60352 100.196 6.60352C100.762 6.60352 101.211 6.75968 101.543 7.07201C101.894 7.38434 102.07 7.80403 102.07 8.33109V19.6042C102.07 20.1313 101.904 20.5608 101.572 20.8926C101.26 21.2245 100.85 21.3904 100.343 21.3904C99.8155 21.3904 99.3861 21.2245 99.0542 20.8926C98.7419 20.5608 98.5857 20.1313 98.5857 19.6042V11.347L92.3781 20.0435C92.0072 20.5705 91.6461 20.9317 91.2947 21.1269C90.9629 21.3025 90.5432 21.3904 90.0356 21.3904C89.4695 21.3904 89.0205 21.2342 88.6887 20.9219C88.3568 20.6096 88.1909 20.1801 88.1909 19.6335V8.36037C88.1909 7.83331 88.3471 7.41362 88.6594 7.10129C88.9913 6.76944 89.4207 6.60352 89.9478 6.60352C90.4553 6.60352 90.8653 6.76944 91.1776 7.10129C91.5094 7.41362 91.6754 7.83331 91.6754 8.36037V16.559L97.7951 8.009Z" fill="black"/>
<path d="M79.4202 21.3925C78.8541 21.3925 78.4052 21.2363 78.0733 20.924C77.7415 20.6117 77.5755 20.192 77.5755 19.6649V9.65085H74.2082C73.7788 9.65085 73.4274 9.52396 73.1541 9.27019C72.9003 9.01643 72.7734 8.68457 72.7734 8.27464C72.7734 7.86471 72.9003 7.53286 73.1541 7.27909C73.4274 7.02532 73.7788 6.89844 74.2082 6.89844H84.603C85.0325 6.89844 85.3741 7.02532 85.6278 7.27909C85.9011 7.53286 86.0378 7.86471 86.0378 8.27464C86.0378 8.68457 85.9011 9.01643 85.6278 9.27019C85.3741 9.52396 85.0325 9.65085 84.603 9.65085H81.2357V19.6649C81.2357 20.192 81.0697 20.6117 80.7379 20.924C80.406 21.2363 79.9668 21.3925 79.4202 21.3925Z" fill="black"/>
<path d="M52.7197 21.2147C52.1536 21.2342 51.7046 21.0878 51.3728 20.7755C51.0409 20.4632 50.875 20.0337 50.875 19.4871V8.33109C50.875 7.80403 51.0312 7.38434 51.3435 7.07201C51.6754 6.75968 52.1146 6.60352 52.6611 6.60352C53.2272 6.60352 53.6762 6.75968 54.0081 7.07201C54.3399 7.38434 54.5059 7.80403 54.5059 8.33109V18.4623H58.9566V8.33109C58.9566 7.80403 59.103 7.38434 59.3958 7.07201C59.7081 6.75968 60.1376 6.60352 60.6842 6.60352C61.2503 6.60352 61.6992 6.75968 62.0311 7.07201C62.363 7.38434 62.5289 7.80403 62.5289 8.33109V18.4623H66.9796V8.33109C66.9796 7.80403 67.1358 7.38434 67.4481 7.07201C67.78 6.75968 68.2192 6.60352 68.7658 6.60352C69.3319 6.60352 69.7808 6.75968 70.1127 7.07201C70.4445 7.38434 70.6105 7.80403 70.6105 8.33109V19.37C70.6105 19.9361 70.4543 20.3851 70.142 20.7169C69.8296 21.0488 69.4099 21.2147 68.8829 21.2147H52.7197Z" fill="black"/>
<path fill-rule="evenodd" clip-rule="evenodd" d="M33.71 7.94078L30.9249 2.48237C30.1471 0.959414 28.5822 0 26.8707 0H11.0799C9.37061 0 7.80574 0.957086 7.02796 2.48004L4.25683 7.90586C3.67233 9.05156 2.84565 10.0576 1.835 10.854L1.73254 10.9355C0.638059 11.7994 0 13.1151 0 14.5077V25.7132C0 26.9754 1.01996 28 2.27745 28H5.09981C6.3573 28 7.37726 26.9754 7.37726 25.7132V22.9491H30.5616V25.7132C30.5616 26.9754 31.5816 28 32.8391 28H35.6614C36.9189 28 37.9389 26.9754 37.9389 25.7132V14.5193C37.9389 13.1151 37.2915 11.7901 36.1831 10.9285C35.1514 10.1251 34.3085 9.10512 33.7123 7.94078H33.71ZM10.1187 18.1219C10.1187 18.8415 9.53419 19.4259 8.81463 19.4259H5.08874C4.0874 19.4259 3.26771 18.6016 3.26771 17.5956V15.9353C3.26771 14.9572 4.30164 14.3285 5.17024 14.7756L9.41077 16.9622C9.8439 17.1858 10.1187 17.6329 10.1187 18.1219ZM29.1224 19.4259C28.4028 19.4259 27.8183 18.8415 27.8183 18.1219C27.8183 17.6329 28.0931 17.1858 28.5262 16.9622L32.7668 14.7756C33.6354 14.3285 34.6693 14.9572 34.6693 15.9353V17.5956C34.6693 18.6016 33.8496 19.4259 32.8483 19.4259H29.1224ZM28.6411 5.14176C28.0496 3.97975 26.8737 3.26484 25.5812 3.26484H12.3776C11.0852 3.26484 9.90921 3.98673 9.31772 5.14176L7.23588 9.22393C6.83069 10.018 7.14506 10.9891 7.93681 11.3989C8.73322 11.8088 9.7136 11.4944 10.1188 10.6956L12.2495 6.51568H17.3563V10.528C17.3563 11.4199 18.0806 12.1441 18.9724 12.1441C19.8643 12.1441 20.5885 11.4199 20.5885 10.528V6.51568H25.6953L27.8261 10.6956C28.2336 11.4944 29.2116 11.8088 30.0081 11.3989C30.7998 10.9914 31.1142 10.018 30.709 9.22393L28.6271 5.14176H28.6365H28.6411ZM13.8769 16.1766H24.0742C24.9719 16.1766 25.6996 16.9043 25.6996 17.802C25.6996 18.6997 24.9719 19.4274 24.0742 19.4274H13.8769C12.9792 19.4274 12.2515 18.6997 12.2515 17.802C12.2515 16.9043 12.9792 16.1766 13.8769 16.1766Z" fill="#266EF9"/>
</svg>
