<svg width="40" height="40" viewBox="0 0 40 40" fill="none" xmlns="http://www.w3.org/2000/svg">
<g clip-path="url(#clip0_277_14247)">
<rect width="40" height="40" rx="20" fill="#9EE970"/>
<path d="M20.5271 27C12.6689 27 8.18676 21.7448 8 13H11.9363C12.0656 19.4184 14.9674 22.1371 17.266 22.6977V13H20.9726V18.5355C23.2424 18.2973 25.6269 15.7748 26.4314 13H30.1379C29.5202 16.4194 26.9343 18.9419 25.0954 19.979C26.9343 20.8198 29.8794 23.02 31 27H26.9199C26.0436 24.3373 23.8601 22.2773 20.9726 21.997V27H20.5271Z" fill="black"/>
<path d="M0 20C0 8.95431 8.95431 0 20 0C31.0457 0 40 8.95431 40 20C40 31.0457 31.0457 40 20 40C8.95431 40 0 31.0457 0 20Z" fill="white"/>
<path d="M11.2929 27.2929C10.9024 27.6834 10.9024 28.3166 11.2929 28.7071C11.6834 29.0976 12.3166 29.0976 12.7071 28.7071L11.2929 27.2929ZM29 12C29 11.4477 28.5523 11 28 11H19C18.4477 11 18 11.4477 18 12C18 12.5523 18.4477 13 19 13H27V21C27 21.5523 27.4477 22 28 22C28.5523 22 29 21.5523 29 21V12ZM12.7071 28.7071L28.7071 12.7071L27.2929 11.2929L11.2929 27.2929L12.7071 28.7071Z" fill="black"/>
</g>
<defs>
<clipPath id="clip0_277_14247">
<rect width="40" height="40" rx="20" fill="white"/>
</clipPath>
</defs>
</svg>
