<svg width="64" height="64" viewBox="0 0 64 64" fill="none" xmlns="http://www.w3.org/2000/svg">
<circle cx="23" cy="41" r="23" fill="#9EE970"/>
<path fill-rule="evenodd" clip-rule="evenodd" d="M24 7C24 5.89543 24.8954 5 26 5H38C39.1046 5 40 5.89543 40 7C40 8.10457 39.1046 9 38 9L26 9C24.8954 9 24 8.10457 24 7ZM32 17C21.5066 17 13 25.5066 13 36C13 46.4934 21.5066 55 32 55C42.4934 55 51 46.4934 51 36C51 25.5066 42.4934 17 32 17ZM9 36C9 23.2975 19.2975 13 32 13C44.7025 13 55 23.2975 55 36C55 48.7025 44.7025 59 32 59C19.2975 59 9 48.7025 9 36ZM43.4547 30.6558C44.3692 30.0363 44.6083 28.7928 43.9888 27.8783C43.3693 26.9638 42.1258 26.7247 41.2113 27.3442L30.8783 34.3442C29.9638 34.9637 29.7247 36.2072 30.3442 37.1217C30.9637 38.0362 32.2072 38.2753 33.1217 37.6558L43.4547 30.6558Z" fill="black"/>
</svg>
