<svg width="32" height="32" viewBox="0 0 32 32" fill="none" xmlns="http://www.w3.org/2000/svg">
<g clip-path="url(#clip0_221_565)">
<rect width="32" height="32" rx="16" fill="white"/>
<path d="M0 16C0 7.1632 7.1616 0 16 0C24.8352 0 32 7.1632 32 16C32 24.8368 24.8352 32 16 32C7.1616 32 0 24.8368 0 16Z" fill="#FC3F1D"/>
<path d="M18.0487 9.0696H16.5703C13.8599 9.0696 12.4343 10.4424 12.4343 12.4664C12.4343 14.7544 13.4199 15.8264 15.4439 17.2008L17.1159 18.3272L12.3111 25.5064H8.7207L13.0327 19.084C10.5527 17.3064 9.1607 15.58 9.1607 12.66C9.1607 8.9992 11.7127 6.5 16.5527 6.5H21.3575V25.4888H18.0487V9.0696Z" fill="white"/>
</g>
<defs>
<clipPath id="clip0_221_565">
<rect width="32" height="32" rx="16" fill="white"/>
</clipPath>
</defs>
</svg>
